<svg width="56" height="56" viewBox="0 0 56 56" fill="none" xmlns="http://www.w3.org/2000/svg">
<g id="Icon">
<g id="Vector">
<path id="Vector_2" fill-rule="evenodd" clip-rule="evenodd" d="M33.7999 21.2769V5.38411C33.3491 5.23197 32.8871 5.09291 32.4242 4.96411C30.5799 4.47131 28.6386 4.19971 26.6319 4.19971C25.7742 4.19971 24.9314 4.25291 24.0998 4.34904C22.066 4.57864 20.1163 5.08637 18.2823 5.82091C18.2823 5.82091 33.3939 20.7225 33.7999 21.2769ZM45.9708 15.2956C46.2106 15.711 46.4365 16.1338 46.6484 16.5566L35.3662 27.7948C35.4792 27.12 35.3662 5.93896 35.3662 5.93896C37.1834 6.70616 38.9185 7.72723 40.5229 8.99563C41.1781 9.5127 41.8137 10.0718 42.4194 10.6747C43.8372 12.084 45.0132 13.6455 45.9708 15.2956ZM27.9017 17.8339L16.6224 6.59375C16.1912 6.80842 15.7674 7.03335 15.3549 7.27228C13.6936 8.22335 12.1284 9.39842 10.7144 10.8068C10.103 11.4125 9.54771 12.0482 9.02971 12.6978C7.75571 14.2956 6.73184 16.0269 5.95997 17.8376C5.95997 17.8376 27.2213 17.7256 27.9017 17.8339ZM21.3381 19.4322H5.38553C5.23153 19.8783 5.09526 20.3385 4.96833 20.8014C4.47086 22.641 4.2002 24.5739 4.2002 26.5722C4.2002 27.4262 4.2534 28.2671 4.35046 29.0941C4.58006 31.1231 5.0878 33.0654 5.8298 34.8873C5.8298 34.8873 20.7799 19.8298 21.3381 19.4322ZM6.53712 36.5316L17.8127 25.2915C17.7044 25.9655 17.8174 46.811 17.8192 47.1488L17.8192 47.1494L17.8192 47.1499L17.8192 47.1502L17.8193 47.153C15.9983 46.3867 14.267 45.3703 12.6626 44.0991C12.0074 43.5783 11.3709 43.0239 10.7661 42.42C9.34739 41.0098 8.16765 39.4483 7.21472 37.7954C6.97672 37.3791 6.74619 36.9619 6.53712 36.5316ZM38.5789 35.4853C35.8196 37.3321 33.9266 40.3726 33.6388 43.868L25.1895 35.4501C25.576 35.5147 32.5857 35.5054 38.5789 35.4853ZM42.798 33.7781H31.8594C32.4185 33.3759 47.3714 18.3193 47.3714 18.3193C48.1125 20.144 48.6165 22.0881 48.8489 24.1144C48.945 24.9423 49.0001 25.7841 49.0001 26.6391C49.0001 28.6383 48.7275 30.5656 48.2273 32.4071C48.1022 32.8681 47.9631 33.3283 47.8119 33.7781H46.8032C46.1534 33.6608 45.4842 33.5996 44.8006 33.5996C44.117 33.5996 43.4478 33.6608 42.798 33.7781ZM33.6833 46.1676C33.7482 46.7003 33.8505 47.2215 33.9874 47.7284C32.4293 48.2774 30.7937 48.6577 29.0959 48.8499C28.268 48.947 27.4234 49.0002 26.5684 49.0002C24.5618 49.0002 22.6232 48.7314 20.7762 48.2302C20.3142 48.106 19.854 47.9679 19.4014 47.8148V31.9202C19.7332 32.3822 30.0752 42.604 33.6833 46.1676Z" fill="#6B7CFF"/>
</g>
<g id="Vector_3">
<circle id="&#230;&#164;&#173;&#229;&#156;&#134;&#229;&#189;&#162;" cx="44.8004" cy="44.7999" r="8.4" fill="#6B7CFF"/>
<path id="&#229;&#189;&#162;&#231;&#138;&#182;&#231;&#187;&#147;&#229;&#144;&#136;" fill-rule="evenodd" clip-rule="evenodd" d="M49.1519 42.1627L48.162 41.1727L43.2122 46.1226L40.7372 43.6476L39.7472 44.6375L43.2121 48.1024L43.2121 48.1023L43.2122 48.1024L49.1519 42.1627Z" fill="#FAFBFF"/>
</g>
</g>
</svg>
